<svg xmlns="http://www.w3.org/2000/svg" version="1.1" viewBox="0 0 1184 765" style="&#10;    /* background: #54820c; */&#10;    /* padding-left: 150px; */&#10;">
<defs>
<linearGradient id="a" x1="99.622%" x2="53.959%" y1=".57942%" y2="70.498%">
<stop stop-color="#8dbe40" offset="0"/>
<stop stop-color="white" stop-opacity="0" offset="1"/>
</linearGradient>
</defs>
<g fill="none" fill-opacity=".2" fill-rule="evenodd">
<g transform="translate(-12 -11)" fill="url(#a)">
<path transform="translate(450.22 432.8) scale(-1 1) rotate(8) translate(-450.22 -432.8)" d="m76.319 173.91l501.47 602.62c26.142 31.415 72.801 35.689 104.22 9.5469 12.411-10.328 21.103-24.431 24.751-40.158l139.8-602.62c9.2357-39.812-15.551-79.573-55.363-88.808-5.4833-1.272-11.094-1.9143-16.723-1.9143h-641.27c-40.869 0-74 33.131-74 74 0 17.294 6.0569 34.041 17.119 47.334z"/>
<path transform="translate(574.54 432.8) scale(-1 1) rotate(8) translate(-574.54 -432.8)" d="m200.64 173.91l501.47 602.62c26.142 31.415 72.801 35.689 104.22 9.5469 12.411-10.328 21.103-24.431 24.751-40.158l139.8-602.62c9.2357-39.812-15.551-79.573-55.363-88.808-5.4833-1.272-11.094-1.9143-16.723-1.9143h-641.27c-40.869 0-74 33.131-74 74 0 17.294 6.0569 34.041 17.119 47.334z"/>
<path transform="translate(707.73 432.8) scale(-1 1) rotate(8) translate(-707.73 -432.8)" d="m333.83 173.91l501.47 602.62c26.142 31.415 72.801 35.689 104.22 9.5469 12.411-10.328 21.103-24.431 24.751-40.158l139.8-602.62c9.2357-39.812-15.551-79.573-55.363-88.808-5.4833-1.272-11.094-1.9143-16.723-1.9143h-641.27c-40.869 0-74 33.131-74 74 0 17.294 6.0569 34.041 17.119 47.334z"/>
<path transform="translate(849.81 432.8) scale(-1 1) rotate(8) translate(-849.81 -432.8)" d="m475.91 173.91l501.47 602.62c26.142 31.415 72.801 35.689 104.22 9.5469 12.41-10.328 21.103-24.431 24.751-40.158l139.8-602.62c9.2357-39.812-15.551-79.573-55.363-88.808-5.4833-1.272-11.094-1.9143-16.723-1.9143h-641.27c-40.869 0-74 33.131-74 74 0 17.294 6.0569 34.041 17.119 47.334z"/>
</g>
</g>
</svg>